<?xml version="1.0" encoding="utf-8"?>
<!-- Generator: Adobe Illustrator 20.1.0, SVG Export Plug-In . SVG Version: 6.00 Build 0)  -->
<svg version="1.1" id="Ebene_1" xmlns="http://www.w3.org/2000/svg" xmlns:xlink="http://www.w3.org/1999/xlink" x="0px" y="0px"
	 viewBox="0 0 500 500" style="enable-background:new 0 0 500 500;" xml:space="preserve">
<style type="text/css">
	.st0{fill:#26A69A;}
</style>
<title>Dynamic</title>
<path d="M128.4,420.8V65.3h99.4c29.1,0,55.3,6.6,78.4,19.9s41.1,32.3,54.1,57c12.9,24.7,19.4,52.9,19.4,84.5v32.7
	c0,31.7-6.4,59.9-19.3,84.5c-12.9,24.6-31,43.5-54.4,56.9c-23.3,13.3-50.1,20-80.4,20L128.4,420.8z M158.4,90.7v304.7h67.4
	c37.4,0,67.5-12.4,90.1-37.3c22.6-24.8,33.9-58.4,33.9-100.8V226c0-40.9-11.2-73.6-33.5-98.2c-22.3-24.6-51.7-37-88.1-37.1
	L158.4,90.7z"/>
<g>
	<path class="st0" d="M228.1,355.2l47-98.8h24.4l-78.4,154.1c-10.9,21.4-24.9,32-42,31.7c-3-0.1-7.4-0.8-13.3-2.2l2-18.3l5.7,0.6
		c7,0.3,13-1.2,18.1-4.7c5.1-3.5,9.6-9.1,13.5-16.8l7.9-15.1l-22.8-129.3h23.1L228.1,355.2z"/>
	<path class="st0" d="M340.6,256.3l-3.2,16.7c11.9-13,25.4-19.4,40.5-19c12.5,0.3,21.6,4.6,27.6,12.9c5.9,8.3,8.1,20,6.6,35
		l-14.4,86.5h-22.1l14.5-86.8c0.5-4,0.5-7.7,0.1-11.1c-1.4-11.4-8.1-17.2-20.1-17.4c-13.3-0.2-24.9,6.8-34.9,21.2l-16.4,94.1h-22.1
		l22.9-132.1L340.6,256.3z"/>
</g>
</svg>
