<svg xmlns="http://www.w3.org/2000/svg" viewBox="0 0 500 500"><title>Container</title><rect x="50" y="50" width="400" height="400" style="fill:#fff"/><path d="M462.5,462.5H37.5V37.5h425Zm-400-25h375V62.5H62.5Z"/><rect x="100" y="100" width="46.39" height="300" style="fill:#fff"/><path d="M153.89,407.5H92.5V92.5h61.39Zm-46.39-15h31.39v-285H107.5Z"/><rect x="183.18" y="100" width="46.39" height="300" style="fill:#fff"/><path d="M237.06,407.5H175.68V92.5h61.39Zm-46.39-15h31.39v-285H190.68Z"/><rect x="266.35" y="100" width="46.39" height="300" style="fill:#fff"/><path d="M320.24,407.5H258.85V92.5h61.39Zm-46.39-15h31.39v-285H273.85Z"/><rect x="349.53" y="100" width="46.39" height="300" style="fill:#fff"/><path d="M403.42,407.5H342V92.5h61.39ZM357,392.5h31.39v-285H357Z"/></svg>